{
  "accessors": [
    {
      "bufferView": 2,
      "componentType": 5126,
      "count": 350,
      "max": [
        2.236057758331299,
        2.2935616970062256,
        0.1892492175102234
      ],
      "min": [
        -2.236057758331299,
        -2.0664284229278564,
        0.0
      ],
      "type": "VEC3"
    },
    {
      "bufferView": 2,
      "byteOffset": 4200,
      "componentType": 5126,
      "count": 350,
      "max": [
        1.0,
        1.0,
        1.0
      ],
      "min": [
        -1.0,
        -1.0,
        0.0
      ],
      "type": "VEC3"
    },
    {
      "bufferView": 3,
      "componentType": 5126,
      "count": 350,
      "max": [
        0.9994644522666931,
        0.999930739402771,
        1.0,
        1.0
      ],
      "min": [
        -0.999454140663147,
        -0.9998156428337097,
        -1.0,
        1.0
      ],
      "type": "VEC4"
    },
    {
      "bufferView": 1,
      "componentType": 5126,
      "count": 350,
      "max": [
        0.9944936633110046,
        0.9608005285263062
      ],
      "min": [
        0.005506341811269522,
        0.005506341811269522
      ],
      "type": "VEC2"
    },
    {
      "bufferView": 1,
      "byteOffset": 2800,
      "componentType": 5126,
      "count": 350,
      "max": [
        0.9944936633110046,
        0.9608005285263062
      ],
      "min": [
        0.005506341811269522,
        0.005506341811269522
      ],
      "type": "VEC2"
    },
    {
      "bufferView": 1,
      "byteOffset": 5600,
      "componentType": 5126,
      "count": 350,
      "max": [
        0.9944936633110046,
        0.9608005285263062
      ],
      "min": [
        0.005506341811269522,
        0.005506341811269522
      ],
      "type": "VEC2"
    },
    {
      "bufferView": 0,
      "componentType": 5125,
      "count": 771,
      "type": "SCALAR"
    }
  ],
  "asset": {
    "extras": {
      "author": "EmilJoes Games (https://sketchfab.com/emiljoes)",
      "license": "CC-BY-NC-4.0 (http://creativecommons.org/licenses/by-nc/4.0/)",
      "source": "https://sketchfab.com/3d-models/fnaf-wall-sun-3da62473383d4171a22e1170949d5dae",
      "title": "FNAF Wall Sun"
    },
    "generator": "Sketchfab-13.74.0",
    "version": "2.0"
  },
  "bufferViews": [
    {
      "buffer": 0,
      "byteLength": 3084,
      "name": "floatBufferViews",
      "target": 34963
    },
    {
      "buffer": 0,
      "byteLength": 8400,
      "byteOffset": 3084,
      "byteStride": 8,
      "name": "floatBufferViews",
      "target": 34962
    },
    {
      "buffer": 0,
      "byteLength": 8400,
      "byteOffset": 11484,
      "byteStride": 12,
      "name": "floatBufferViews",
      "target": 34962
    },
    {
      "buffer": 0,
      "byteLength": 5600,
      "byteOffset": 19884,
      "byteStride": 16,
      "name": "floatBufferViews",
      "target": 34962
    }
  ],
  "buffers": [
    {
      "byteLength": 25484,
      "uri": "scene.bin"
    }
  ],
  "images": [
    {
      "uri": "textures/Sun_Mat_baseColor.png"
    },
    {
      "uri": "textures/Sun_Mat_metallicRoughness.png"
    },
    {
      "uri": "textures/Sun_Mat_normal.png"
    }
  ],
  "materials": [
    {
      "doubleSided": true,
      "name": "Sun_Mat",
      "normalTexture": {
        "index": 2,
        "scale": 0.7
      },
      "pbrMetallicRoughness": {
        "baseColorTexture": {
          "index": 0
        },
        "metallicFactor": 0.0,
        "metallicRoughnessTexture": {
          "index": 1
        },
        "roughnessFactor": 0.7
      }
    }
  ],
  "meshes": [
    {
      "name": "Wall Sun_Sun Mat_0",
      "primitives": [
        {
          "attributes": {
            "NORMAL": 1,
            "POSITION": 0,
            "TANGENT": 2,
            "TEXCOORD_0": 3,
            "TEXCOORD_1": 4,
            "TEXCOORD_2": 5
          },
          "indices": 6,
          "material": 0,
          "mode": 4
        }
      ]
    }
  ],
  "nodes": [
    {
      "children": [
        1
      ],
      "matrix": [
        0.5189599990844727,
        0.0,
        0.0,
        0.0,
        0.0,
        1.1523226796860634e-16,
        -0.5189599990844727,
        0.0,
        0.0,
        0.5189599990844727,
        1.1523226796860634e-16,
        0.0,
        0.0,
        0.0,
        0.0,
        1.0
      ],
      "name": "Sketchfab_model"
    },
    {
      "children": [
        2
      ],
      "matrix": [
        0.009999999776482582,
        0.0,
        0.0,
        0.0,
        0.0,
        0.0,
        0.009999999776482582,
        0.0,
        0.0,
        -0.009999999776482582,
        0.0,
        0.0,
        0.0,
        0.0,
        0.0,
        1.0
      ],
      "name": "310abd94ee394686ab4554e7b4ae890a.fbx"
    },
    {
      "children": [
        3
      ],
      "name": "RootNode"
    },
    {
      "children": [
        4
      ],
      "matrix": [
        100.0,
        0.0,
        0.0,
        0.0,
        0.0,
        99.9999999999999,
        4.371138828673792e-06,
        0.0,
        0.0,
        -4.371138828673792e-06,
        99.9999999999999,
        0.0,
        1.1874362826347351e-05,
        2.8498470783233643e-05,
        -6.500004291534424,
        1.0
      ],
      "name": "Wall Sun"
    },
    {
      "mesh": 0,
      "name": "Wall Sun_Sun Mat_0"
    }
  ],
  "samplers": [
    {
      "magFilter": 9729,
      "minFilter": 9987,
      "wrapS": 10497,
      "wrapT": 10497
    }
  ],
  "scene": 0,
  "scenes": [
    {
      "name": "Sketchfab_Scene",
      "nodes": [
        0
      ]
    }
  ],
  "textures": [
    {
      "sampler": 0,
      "source": 0
    },
    {
      "sampler": 0,
      "source": 1
    },
    {
      "sampler": 0,
      "source": 2
    }
  ]
}
