{
  "accessors": [
    {
      "bufferView": 3,
      "componentType": 5126,
      "count": 3427,
      "max": [
        0.19987593591213226,
        0.4191187620162964,
        0.2304251790046692
      ],
      "min": [
        -0.1559421569108963,
        -0.002946538617834449,
        -0.29214170575141907
      ],
      "type": "VEC3"
    },
    {
      "bufferView": 3,
      "byteOffset": 41124,
      "componentType": 5126,
      "count": 3427,
      "max": [
        1.0,
        1.0,
        1.0
      ],
      "min": [
        -1.0,
        -1.0,
        -1.0
      ],
      "type": "VEC3"
    },
    {
      "bufferView": 4,
      "componentType": 5126,
      "count": 3427,
      "max": [
        1.0,
        1.0,
        1.0,
        1.0
      ],
      "min": [
        0.0,
        0.0,
        0.0,
        0.0
      ],
      "type": "VEC4"
    },
    {
      "bufferView": 2,
      "componentType": 5126,
      "count": 3427,
      "max": [
        0.99609375,
        0.9990024566650391
      ],
      "min": [
        0.0009946823120117188,
        0.00146484375
      ],
      "type": "VEC2"
    },
    {
      "bufferView": 1,
      "componentType": 5125,
      "count": 13176,
      "type": "SCALAR"
    },
    {
      "bufferView": 5,
      "componentType": 5126,
      "count": 12,
      "max": [
        100.0,
        6.259038160783833e-31,
        1.7526505757814448e-07,
        0.0,
        1.0731888579984633e-23,
        100.0,
        5.399908218350902e-07,
        0.0,
        0.0,
        6.123234924670329e-17,
        100.0,
        0.0,
        4.0836771288198064e-16,
        0.0,
        0.21086639165878296,
        1.0
      ],
      "min": [
        1.0,
        -1.4210886902454e-14,
        0.0,
        0.0,
        -2.0823684980129584e-14,
        1.0,
        -6.123234924670329e-17,
        0.0,
        -1.7526504336728976e-07,
        -5.399908218350902e-07,
        1.0,
        0.0,
        -1.255765891272631e-08,
        -0.3185359537601471,
        -1.3731822789964099e-08,
        1.0
      ],
      "type": "MAT4"
    },
    {
      "bufferView": 0,
      "componentType": 5123,
      "count": 3427,
      "type": "VEC4"
    },
    {
      "bufferView": 4,
      "byteOffset": 54832,
      "componentType": 5126,
      "count": 3427,
      "max": [
        1.0,
        0.4745098054409027,
        0.0,
        0.0
      ],
      "min": [
        0.5254902243614197,
        0.0,
        0.0,
        0.0
      ],
      "type": "VEC4"
    }
  ],
  "asset": {
    "extras": {
      "author": "KPMisParrot (https://sketchfab.com/KPMisParrot)",
      "license": "CC-BY-4.0 (http://creativecommons.org/licenses/by/4.0/)",
      "source": "https://sketchfab.com/3d-models/fnaf-sb-generator-f66317d89ccb494aaceb20e51f438ec0",
      "title": "FNAF SB | Generator"
    },
    "generator": "Sketchfab-15.33.0",
    "version": "2.0"
  },
  "bufferViews": [
    {
      "buffer": 0,
      "byteLength": 27416,
      "byteStride": 8,
      "name": "shortBufferViews",
      "target": 34962
    },
    {
      "buffer": 0,
      "byteLength": 52704,
      "byteOffset": 27416,
      "name": "floatBufferViews",
      "target": 34963
    },
    {
      "buffer": 0,
      "byteLength": 27416,
      "byteOffset": 80120,
      "byteStride": 8,
      "name": "floatBufferViews",
      "target": 34962
    },
    {
      "buffer": 0,
      "byteLength": 82248,
      "byteOffset": 107536,
      "byteStride": 12,
      "name": "floatBufferViews",
      "target": 34962
    },
    {
      "buffer": 0,
      "byteLength": 109664,
      "byteOffset": 189784,
      "byteStride": 16,
      "name": "floatBufferViews",
      "target": 34962
    },
    {
      "buffer": 0,
      "byteLength": 768,
      "byteOffset": 299448,
      "name": "floatBufferViews"
    }
  ],
  "buffers": [
    {
      "byteLength": 300216,
      "uri": "scene.bin"
    }
  ],
  "images": [
    {
      "uri": "textures/Mi_Generator2_baseColor.png"
    }
  ],
  "materials": [
    {
      "doubleSided": true,
      "name": "Mi_Generator2",
      "pbrMetallicRoughness": {
        "baseColorTexture": {
          "index": 0
        },
        "metallicFactor": 0.0,
        "roughnessFactor": 0.8211145618000169
      }
    }
  ],
  "meshes": [
    {
      "name": "Generator_geo.001_Mi_Generator2_0",
      "primitives": [
        {
          "attributes": {
            "COLOR_0": 2,
            "JOINTS_0": 6,
            "NORMAL": 1,
            "POSITION": 0,
            "TEXCOORD_0": 3,
            "WEIGHTS_0": 7
          },
          "indices": 4,
          "material": 0,
          "mode": 4
        }
      ]
    }
  ],
  "nodes": [
    {
      "children": [
        1
      ],
      "matrix": [
        1.0,
        0.0,
        0.0,
        0.0,
        0.0,
        2.220446049250313e-16,
        -1.0,
        0.0,
        0.0,
        1.0,
        2.220446049250313e-16,
        0.0,
        0.0,
        0.0,
        0.0,
        1.0
      ],
      "name": "Sketchfab_model"
    },
    {
      "children": [
        2
      ],
      "matrix": [
        0.009999999776482582,
        0.0,
        0.0,
        0.0,
        0.0,
        0.0,
        0.009999999776482582,
        0.0,
        0.0,
        -0.009999999776482582,
        0.0,
        0.0,
        0.0,
        0.0,
        0.0,
        1.0
      ],
      "name": "db25029751e441b6b9728e78ea7126b0.fbx"
    },
    {
      "children": [
        3
      ],
      "name": "RootNode"
    },
    {
      "children": [
        4
      ],
      "matrix": [
        100.0,
        0.0,
        0.0,
        0.0,
        0.0,
        -1.629206793918314e-05,
        -99.99999999999868,
        0.0,
        0.0,
        99.99999999999868,
        -1.629206793918314e-05,
        0.0,
        0.0,
        0.0,
        0.0,
        1.0
      ],
      "name": "Generator_geo"
    },
    {
      "children": [
        5,
        18,
        17
      ],
      "name": "Object_4"
    },
    {
      "children": [
        6
      ],
      "name": "_rootJoint"
    },
    {
      "children": [
        7,
        14
      ],
      "name": "Generator_geo_00",
      "rotation": [
        -1.3234889800848443e-23,
        -0.0,
        0.0,
        1.0
      ]
    },
    {
      "children": [
        8
      ],
      "name": "JOINTS_01",
      "rotation": [
        3.0616177932074097e-17,
        0.0,
        0.0,
        1.0
      ]
    },
    {
      "children": [
        9,
        12
      ],
      "name": "Gen_Root_jnt_02",
      "rotation": [
        0.7071069478988647,
        6.196557222892807e-08,
        6.196553670179128e-08,
        0.7071065902709961
      ],
      "scale": [
        1.0,
        0.9999999403953552,
        0.9999999403953552
      ]
    },
    {
      "children": [
        10
      ],
      "name": "Gen_Frame_jnt_03",
      "rotation": [
        -2.699953256524168e-07,
        -5.960464477539063e-08,
        -3.122776695433163e-14,
        1.0
      ],
      "translation": [
        2.752857078576476e-21,
        0.025429699569940567,
        -1.2434497028768806e-14
      ]
    },
    {
      "children": [
        11
      ],
      "name": "Gen_Lever_jnt_04",
      "rotation": [
        -3.552713467042264e-15,
        1.7484529379885316e-09,
        -1.2299093094677812e-15,
        1.0
      ],
      "translation": [
        1.1820270096052354e-08,
        0.29310598969459534,
        -0.21086600422859192
      ]
    },
    {
      "name": "Gen_Lever_jnt_end_08",
      "rotation": [
        0.0,
        -3.308722450212111e-24,
        2.0510383535746307e-29,
        1.0
      ],
      "translation": [
        0.0,
        0.36107608675956726,
        0.0
      ]
    },
    {
      "children": [
        13
      ],
      "name": "Gen_Motor_jnt_05",
      "rotation": [
        -2.6999538249583566e-07,
        -5.960467319710006e-08,
        -3.122776356619984e-14,
        1.0
      ],
      "translation": [
        1.5350781491221474e-14,
        0.18762899935245514,
        -8.758608771586296e-08
      ]
    },
    {
      "name": "Gen_Motor_jnt_end_09",
      "rotation": [
        1.3234889800848443e-23,
        -0.0,
        -3.1554436208840472e-30,
        1.0
      ],
      "translation": [
        0.0,
        0.02542966604232788,
        0.0
      ]
    },
    {
      "children": [
        15
      ],
      "name": "GEO_06",
      "rotation": [
        0.7071068286895752,
        1.2101623703131281e-08,
        1.2101621038596022e-08,
        0.7071067094802856
      ]
    },
    {
      "children": [
        16
      ],
      "name": "MOD_Generator_07",
      "rotation": [
        1.2688049721987227e-08,
        -3.552713678800501e-15,
        4.3429359145242185e-16,
        1.0
      ],
      "translation": [
        8.685869711466069e-16,
        0.0,
        -2.5376099443974454e-08
      ]
    },
    {
      "name": "MOD_Generator_end_010",
      "rotation": [
        -1.6543612251060553e-24,
        3.308722450212111e-24,
        -9.860761315262648e-31,
        1.0
      ],
      "translation": [
        -3.944304526105059e-31,
        1.0,
        0.0
      ]
    },
    {
      "matrix": [
        100.0,
        0.0,
        0.0,
        0.0,
        0.0,
        6.123233995736766e-15,
        -100.0,
        0.0,
        0.0,
        100.0,
        6.123233995736766e-15,
        0.0,
        0.0,
        0.0,
        0.0,
        1.0
      ],
      "name": "Object_17"
    },
    {
      "mesh": 0,
      "name": "Object_18",
      "skin": 0
    }
  ],
  "samplers": [
    {
      "magFilter": 9729,
      "minFilter": 9987,
      "wrapS": 10497,
      "wrapT": 10497
    }
  ],
  "scene": 0,
  "scenes": [
    {
      "name": "Sketchfab_Scene",
      "nodes": [
        0
      ]
    }
  ],
  "skins": [
    {
      "inverseBindMatrices": 5,
      "joints": [
        5,
        6,
        7,
        8,
        9,
        10,
        11,
        12,
        13,
        14,
        15,
        16
      ],
      "skeleton": 5
    }
  ],
  "textures": [
    {
      "sampler": 0,
      "source": 0
    }
  ]
}
